<?xml version="1.0" encoding="utf-8"?>
<!-- Generator: Adobe Illustrator 22.1.0, SVG Export Plug-In . SVG Version: 6.00 Build 0)  -->
<svg version="1.1" id="Layer_1" xmlns="http://www.w3.org/2000/svg" xmlns:xlink="http://www.w3.org/1999/xlink" x="0px" y="0px"
	 viewBox="0 0 3106 1006.3" style="enable-background:new 0 0 3106 1006.3;" xml:space="preserve">
<style type="text/css">
	.st0{fill:#FFFFFF;}
</style>
<g>
	<g>
		<g>
			<path class="st0" d="M935.9,235.2L1047,502.5h-39L975.8,424H854l-31.4,78.5h-36.1l109-267.2H935.9z M865.5,394.7h98.4
				l-48.8-118.8h-1.7L865.5,394.7z"/>
			<path class="st0" d="M1111.5,235.2v267.2h-35.2V235.2H1111.5z"/>
			<path class="st0" d="M1194.7,235.2v267.2h-35.2V235.2H1194.7z"/>
			<path class="st0" d="M1241.7,235.2h36.5v39.9h-36.5V235.2z M1277.8,317.1v185.4h-35.2V317.1H1277.8z"/>
			<path class="st0" d="M1495.8,440.1c-9.3,42-40.3,67.4-86.5,67.4c-55.1,0-95.4-37.3-95.4-95c0-58.5,40.3-100.5,93.7-100.5
				c59,0,89.1,42,89.1,92.5v14h-147.6c1.7,36.1,27.6,61.5,60.7,61.5c31,0,49.2-14.8,56.8-43.3L1495.8,440.1z M1460.6,395.6
				c-1.3-29.7-17.8-56.8-53-56.8c-33.5,0-53.4,26.3-57.7,56.8H1460.6z"/>
			<path class="st0" d="M1674,463.9c-8.5,22.9-31.8,43.7-66.6,43.7c-55.1,0-84.8-42.8-84.8-97.6s29.7-98,84.8-98
				c34.8,0,58.1,21.2,66.6,44.1V235.2h35.2v267.2H1674V463.9z M1674.4,404.5c0-40.3-25.5-64.1-59-64.1c-36.5,0-56.8,27.1-56.8,69.6
				s20.4,69.6,56.8,69.6c33.5,0,59-23.8,59-64.5V404.5z"/>
			<path class="st0" d="M2010,502.5c-5.1-7.2-8.9-26.7-11-58.1c-1.7-29.7-15.7-49.6-52.2-49.6h-75.5v107.7h-36.1V235.2h108.6
				c67.9,0,100.5,31.4,100.5,78.9c0,41.1-28,62.8-60.7,66.6c32.7,6.4,48.4,26.3,50.9,57.7c3.4,39,4.7,54.3,13.6,64.1H2010z
				 M1941.7,365.4c45.4,0,65.8-17,65.8-50.1c0-30.5-20.4-50.1-65.8-50.1h-70.4v100.1H1941.7z"/>
			<path class="st0" d="M2257.3,440.1c-9.3,42-40.3,67.4-86.5,67.4c-55.1,0-95.4-37.3-95.4-95c0-58.5,40.3-100.5,93.8-100.5
				c59,0,89.1,42,89.1,92.5v14h-147.6c1.7,36.1,27.6,61.5,60.7,61.5c31,0,49.2-14.8,56.8-43.3L2257.3,440.1z M2222.1,395.6
				c-1.3-29.7-17.8-56.8-53-56.8c-33.5,0-53.5,26.3-57.7,56.8H2222.1z"/>
			<path class="st0" d="M2443.9,466c0,9.8,5.5,14.4,14.4,14.4c4.2,0,11-1.3,16.1-4.2v19.1c-6.4,6.4-14,11-28.4,11
				c-19.1,0-32.7-14.4-34.8-36.5c-10.2,21.6-36.5,37.8-66.6,37.8c-36.1,0-59.4-19.5-59.4-51.3c0-35.2,30.1-49.6,74.7-58.5l50.1-10.2
				v-7.2c0-25.5-14.8-41.1-40.7-41.1c-26.7,0-41.1,15.7-46.7,37.3l-31.4-4.2c7.2-34.8,34.8-60.2,78.5-60.2
				c46.7,0,74.2,23.8,74.2,70.8V466z M2410,410.8l-41.6,8.9c-29.3,6.4-47.9,11.9-47.9,34.4c0,15.7,10.6,27.6,31.8,27.6
				c32.7,0,57.7-24.6,57.7-61.9V410.8z"/>
			<path class="st0" d="M2537.3,235.2v267.2H2502V235.2H2537.3z"/>
			<path class="st0" d="M997.8,851.8H807.4V584.6H994v30.5H843v84h120v30.1H843v92.1h154.8V851.8z"/>
			<path class="st0" d="M1049.2,787.3c3.4,28.4,23.3,43.7,55.1,43.7c24.6,0,42.8-8.9,42.8-27.6c0-17.4-12.3-23.3-35.2-27.6
				l-31.4-5.5c-34.8-5.5-55.6-20.4-55.6-52.2c0-33.9,28.4-56.8,71.3-56.8c49.2,0,78.1,22.9,81.4,65.8l-28.4,1.7
				c-4.2-28.4-21.6-41.6-53-41.6c-23.3,0-38.6,10.6-38.6,27.6c0,14.8,9.3,22.5,28.4,25.9l34.8,5.5c37.3,6.4,59.4,20.4,59.4,53.9
				c0,36.9-32.7,56.8-75.9,56.8c-46.2,0-81.4-21.6-84.8-67.4L1049.2,787.3z"/>
			<path class="st0" d="M1223.1,691.9h-28v-19.1l11.9-2.1c17.4-3.4,21.2-11.9,25.5-29.7l5.5-25.9h19.9v51.3h52.2v25.5h-52.2v112.4
				c0,16.5,6.8,24.2,22.9,24.2c11.9,0,24.2-5.1,34.8-11v23.8c-13.6,10.2-27.1,15.7-47.5,15.7c-26.3,0-45-12.3-45-48.4V691.9z"/>
			<path class="st0" d="M1495.8,815.3c0,9.8,5.5,14.4,14.4,14.4c4.2,0,11-1.3,16.1-4.2v19.1c-6.4,6.4-14,11-28.4,11
				c-19.1,0-32.7-14.4-34.8-36.5c-10.2,21.6-36.5,37.8-66.6,37.8c-36.1,0-59.4-19.5-59.4-51.3c0-35.2,30.1-49.6,74.7-58.5l50.1-10.2
				v-7.2c0-25.5-14.8-41.1-40.7-41.1c-26.7,0-41.1,15.7-46.7,37.3l-31.4-4.2c7.2-34.8,34.8-60.2,78.5-60.2
				c46.7,0,74.2,23.8,74.2,70.8V815.3z M1461.9,760.2l-41.6,8.9c-29.3,6.4-47.9,11.9-47.9,34.4c0,15.7,10.6,27.6,31.8,27.6
				c32.7,0,57.7-24.6,57.7-61.9V760.2z"/>
			<path class="st0" d="M1558.2,691.9h-28v-19.1l11.9-2.1c17.4-3.4,21.2-11.9,25.5-29.7l5.5-25.9h19.9v51.3h52.2v25.5H1593v112.4
				c0,16.5,6.8,24.2,22.9,24.2c11.9,0,24.2-5.1,34.8-11v23.8c-13.6,10.2-27.1,15.7-47.5,15.7c-26.3,0-45-12.3-45-48.4V691.9z"/>
			<path class="st0" d="M1850.1,789.4c-9.3,42-40.3,67.4-86.5,67.4c-55.1,0-95.4-37.3-95.4-95c0-58.5,40.3-100.5,93.7-100.5
				c59,0,89.1,42,89.1,92.5v14h-147.6c1.7,36.1,27.6,61.5,60.7,61.5c31,0,49.2-14.8,56.8-43.3L1850.1,789.4z M1814.9,744.9
				c-1.3-29.7-17.8-56.8-53-56.8c-33.5,0-53.4,26.3-57.7,56.8H1814.9z"/>
			<path class="st0" d="M1953.1,718.2c0-82.3,56.8-138.7,130.7-138.7c75.5,0,119.2,42,123.9,110.3l-35.2,2.1
				c-3-48.8-34.4-81-88.2-81c-54.7,0-93.3,41.6-93.3,107.7c0,66.2,39,107.3,96.7,107.3c50.1,0,82.3-31.4,87-77.2h-81.4v-28.8h115
				v131.9h-33.5v-47.5c-11.9,33.9-49.6,52.6-91.2,52.6C2007.9,856.9,1953.1,801.3,1953.1,718.2z"/>
			<path class="st0" d="M2359.9,701.6c-10.2-5.5-17.4-7.6-28.8-7.6c-26.7,0-46.7,24.2-46.7,59.8v98h-35.2V666.4h35.2v37.8
				c6.8-21.2,25.9-42.8,52.6-42.8c11.5,0,19.9,3,26.3,8.5L2359.9,701.6z"/>
			<path class="st0" d="M2466.4,856.9c-54.3,0-94.2-39.9-94.2-97.6c0-57.7,39.9-98,94.2-98c54.7,0,95,40.3,95,98
				C2561.4,817,2521.1,856.9,2466.4,856.9z M2466.4,829.7c37.8,0,59-29.3,59-70.4c0-41.6-21.2-70.4-59-70.4
				c-37.3,0-58.1,28.8-58.1,70.4C2408.3,800.5,2429.1,829.7,2466.4,829.7z"/>
			<path class="st0" d="M2722.6,666.4h35.2v185.4h-35.2v-32.7c-8.9,22.1-32.7,37.8-60.7,37.8c-48.4,0-66.2-31.8-66.2-75.1V666.4
				h35.2v112c0,31,13.6,50.9,42.8,50.9c27.6,0,48.8-22.1,48.8-56.4V666.4z"/>
			<path class="st0" d="M2830.8,923.1h-35.2V666.4h35.2v39c8.1-22.9,31.8-44.1,66.6-44.1c54.7,0,84.8,43.3,84.8,98
				c0,54.7-30.1,97.6-84.8,97.6c-34.8,0-58.5-20.8-66.6-43.7V923.1z M2830,764.4c0,40.7,25.9,64.5,59.4,64.5
				c36.5,0,56.4-27.1,56.4-69.6c0-42.4-19.9-69.6-56.4-69.6c-33.5,0-59.4,23.8-59.4,64.1V764.4z"/>
		</g>
	</g>
	<g>
		<polygon class="st0" points="309.1,930.9 122.9,930.9 483.2,74.1 669.4,74.1 		"/>
	</g>
</g>
</svg>
